<svg xmlns="http://www.w3.org/2000/svg" xmlns:xlink="http://www.w3.org/1999/xlink" contentStyleType="text/css" height="270px" preserveAspectRatio="none" style="width:408px;height:270px;background:#FFFFFF;" version="1.1" viewBox="0 0 408 270" width="408px" zoomAndPan="magnify"><defs/><g><line style="stroke:#181818;stroke-width:0.5;stroke-dasharray:5.0,5.0;" x1="26" x2="26" y1="81.4883" y2="189.4199"/><line style="stroke:#181818;stroke-width:0.5;stroke-dasharray:5.0,5.0;" x1="111.3945" x2="111.3945" y1="81.4883" y2="189.4199"/><line style="stroke:#181818;stroke-width:0.5;stroke-dasharray:5.0,5.0;" x1="227.8926" x2="227.8926" y1="81.4883" y2="189.4199"/><line style="stroke:#181818;stroke-width:0.5;stroke-dasharray:5.0,5.0;" x1="346.4121" x2="346.4121" y1="81.4883" y2="189.4199"/><text fill="#000000" font-family="sans-serif" font-size="14" lengthAdjust="spacing" textLength="36.3945" x="5" y="78.5352">Actor</text><ellipse cx="26.1973" cy="13.5" fill="#E2E2F0" rx="8" ry="8" style="stroke:#181818;stroke-width:0.5;"/><path d="M26.1973,21.5 L26.1973,48.5 M13.1973,29.5 L39.1973,29.5 M26.1973,48.5 L13.1973,63.5 M26.1973,48.5 L39.1973,63.5 " fill="none" style="stroke:#181818;stroke-width:0.5;"/><text fill="#000000" font-family="sans-serif" font-size="14" lengthAdjust="spacing" textLength="36.3945" x="5" y="201.9551">Actor</text><ellipse cx="26.1973" cy="213.4082" fill="#E2E2F0" rx="8" ry="8" style="stroke:#181818;stroke-width:0.5;"/><path d="M26.1973,221.4082 L26.1973,248.4082 M13.1973,229.4082 L39.1973,229.4082 M26.1973,248.4082 L13.1973,263.4082 M26.1973,248.4082 L39.1973,263.4082 " fill="none" style="stroke:#181818;stroke-width:0.5;"/><path d="M62.3945,55 L160.8926,55 C165.8926,55 165.8926,68.2441 165.8926,68.2441 C165.8926,68.2441 165.8926,81.4883 160.8926,81.4883 L62.3945,81.4883 C57.3945,81.4883 57.3945,68.2441 57.3945,68.2441 C57.3945,68.2441 57.3945,55 62.3945,55 " fill="#E2E2F0" style="stroke:#181818;stroke-width:0.5;"/><path d="M160.8926,55 C155.8926,55 155.8926,68.2441 155.8926,68.2441 C155.8926,81.4883 160.8926,81.4883 160.8926,81.4883 " fill="none" style="stroke:#181818;stroke-width:0.5;"/><text fill="#000000" font-family="sans-serif" font-size="14" lengthAdjust="spacing" textLength="88.498" x="62.3945" y="73.5352">users-events</text><path d="M62.3945,188.4199 L160.8926,188.4199 C165.8926,188.4199 165.8926,201.6641 165.8926,201.6641 C165.8926,201.6641 165.8926,214.9082 160.8926,214.9082 L62.3945,214.9082 C57.3945,214.9082 57.3945,201.6641 57.3945,201.6641 C57.3945,201.6641 57.3945,188.4199 62.3945,188.4199 " fill="#E2E2F0" style="stroke:#181818;stroke-width:0.5;"/><path d="M160.8926,188.4199 C155.8926,188.4199 155.8926,201.6641 155.8926,201.6641 C155.8926,214.9082 160.8926,214.9082 160.8926,214.9082 " fill="none" style="stroke:#181818;stroke-width:0.5;"/><text fill="#000000" font-family="sans-serif" font-size="14" lengthAdjust="spacing" textLength="88.498" x="62.3945" y="206.9551">users-events</text><rect fill="#E2E2F0" height="30.4883" rx="2.5" ry="2.5" style="stroke:#181818;stroke-width:0.5;" width="105.5195" x="175.8926" y="50"/><text fill="#000000" font-family="sans-serif" font-size="14" lengthAdjust="spacing" textLength="91.5195" x="182.8926" y="70.5352">users-service</text><rect fill="#E2E2F0" height="30.4883" rx="2.5" ry="2.5" style="stroke:#181818;stroke-width:0.5;" width="105.5195" x="175.8926" y="188.4199"/><text fill="#000000" font-family="sans-serif" font-size="14" lengthAdjust="spacing" textLength="91.5195" x="182.8926" y="208.9551">users-service</text><rect fill="#E2E2F0" height="30.4883" rx="2.5" ry="2.5" style="stroke:#181818;stroke-width:0.5;" width="111.4463" x="291.4121" y="50"/><text fill="#000000" font-family="sans-serif" font-size="14" lengthAdjust="spacing" textLength="97.4463" x="298.4121" y="70.5352">billing-service</text><rect fill="#E2E2F0" height="30.4883" rx="2.5" ry="2.5" style="stroke:#181818;stroke-width:0.5;" width="111.4463" x="291.4121" y="188.4199"/><text fill="#000000" font-family="sans-serif" font-size="14" lengthAdjust="spacing" textLength="97.4463" x="298.4121" y="208.9551">billing-service</text><polygon fill="#181818" points="216.6523,108.7988,226.6523,112.7988,216.6523,116.7988,220.6523,112.7988" style="stroke:#181818;stroke-width:1.0;"/><line style="stroke:#181818;stroke-width:1.0;" x1="26.1973" x2="222.6523" y1="112.7988" y2="112.7988"/><text fill="#000000" font-family="sans-serif" font-size="13" lengthAdjust="spacing" textLength="77.3208" x="33.1973" y="108.0566">POST /users</text><polygon fill="#181818" points="122.6436,138.1094,112.6436,142.1094,122.6436,146.1094,118.6436,142.1094" style="stroke:#181818;stroke-width:1.0;"/><line style="stroke:#181818;stroke-width:1.0;" x1="116.6436" x2="227.6523" y1="142.1094" y2="142.1094"/><text fill="#000000" font-family="sans-serif" font-size="13" lengthAdjust="spacing" textLength="77.2192" x="128.6436" y="137.3672">UserCreated</text><polygon fill="#181818" points="335.1353,167.4199,345.1353,171.4199,335.1353,175.4199,339.1353,171.4199" style="stroke:#181818;stroke-width:1.0;"/><line style="stroke:#181818;stroke-width:1.0;" x1="111.6436" x2="341.1353" y1="171.4199" y2="171.4199"/><text fill="#000000" font-family="sans-serif" font-size="13" lengthAdjust="spacing" textLength="202.8457" x="118.6436" y="166.6777">UserCreated -&gt; POST /accounts</text><!--SRC=[NOvB2e0m30NtEKNeNjox4CG3AAW7Y3LAKHJxyVoc5K7SXF3UP0XfVrYiqYI751Su0mT65HnRb_75ktSgjYlDAm4a2BFo9MHSHhF20jkcwp5FCVnREKW2mGO9QylaUO8dYxRHR9lPbw_l0qRaqPFMHv2VRW00]--></g></svg>