<svg xmlns="http://www.w3.org/2000/svg" xmlns:xlink="http://www.w3.org/1999/xlink" contentStyleType="text/css" height="358px" preserveAspectRatio="none" style="width:793px;height:358px;background:#FFFFFF;" version="1.1" viewBox="0 0 793 358" width="793px" zoomAndPan="magnify"><defs/><g><line style="stroke:#181818;stroke-width:0.5;stroke-dasharray:5.0,5.0;" x1="22" x2="22" y1="81.4883" y2="277.3516"/><line style="stroke:#181818;stroke-width:0.5;stroke-dasharray:5.0,5.0;" x1="107.3535" x2="107.3535" y1="81.4883" y2="277.3516"/><line style="stroke:#181818;stroke-width:0.5;stroke-dasharray:5.0,5.0;" x1="233.166" x2="233.166" y1="81.4883" y2="277.3516"/><line style="stroke:#181818;stroke-width:0.5;stroke-dasharray:5.0,5.0;" x1="352.5908" x2="352.5908" y1="81.4883" y2="277.3516"/><line style="stroke:#181818;stroke-width:0.5;stroke-dasharray:5.0,5.0;" x1="574.8506" x2="574.8506" y1="81.4883" y2="277.3516"/><line style="stroke:#181818;stroke-width:0.5;stroke-dasharray:5.0,5.0;" x1="714.2969" x2="714.2969" y1="81.4883" y2="277.3516"/><text fill="#000000" font-family="sans-serif" font-size="14" lengthAdjust="spacing" textLength="29.3535" x="5" y="78.5352">user</text><ellipse cx="22.6768" cy="13.5" fill="#E2E2F0" rx="8" ry="8" style="stroke:#181818;stroke-width:0.5;"/><path d="M22.6768,21.5 L22.6768,48.5 M9.6768,29.5 L35.6768,29.5 M22.6768,48.5 L9.6768,63.5 M22.6768,48.5 L35.6768,63.5 " fill="none" style="stroke:#181818;stroke-width:0.5;"/><text fill="#000000" font-family="sans-serif" font-size="14" lengthAdjust="spacing" textLength="29.3535" x="5" y="289.8867">user</text><ellipse cx="22.6768" cy="301.3398" fill="#E2E2F0" rx="8" ry="8" style="stroke:#181818;stroke-width:0.5;"/><path d="M22.6768,309.3398 L22.6768,336.3398 M9.6768,317.3398 L35.6768,317.3398 M22.6768,336.3398 L9.6768,351.3398 M22.6768,336.3398 L35.6768,351.3398 " fill="none" style="stroke:#181818;stroke-width:0.5;"/><path d="M55.3535,55 L161.166,55 C166.166,55 166.166,68.2441 166.166,68.2441 C166.166,68.2441 166.166,81.4883 161.166,81.4883 L55.3535,81.4883 C50.3535,81.4883 50.3535,68.2441 50.3535,68.2441 C50.3535,68.2441 50.3535,55 55.3535,55 " fill="#E2E2F0" style="stroke:#181818;stroke-width:0.5;"/><path d="M161.166,55 C156.166,55 156.166,68.2441 156.166,68.2441 C156.166,81.4883 161.166,81.4883 161.166,81.4883 " fill="none" style="stroke:#181818;stroke-width:0.5;"/><text fill="#000000" font-family="sans-serif" font-size="14" lengthAdjust="spacing" textLength="95.8125" x="55.3535" y="73.5352">orders-events</text><path d="M55.3535,276.3516 L161.166,276.3516 C166.166,276.3516 166.166,289.5957 166.166,289.5957 C166.166,289.5957 166.166,302.8398 161.166,302.8398 L55.3535,302.8398 C50.3535,302.8398 50.3535,289.5957 50.3535,289.5957 C50.3535,289.5957 50.3535,276.3516 55.3535,276.3516 " fill="#E2E2F0" style="stroke:#181818;stroke-width:0.5;"/><path d="M161.166,276.3516 C156.166,276.3516 156.166,289.5957 156.166,289.5957 C156.166,302.8398 161.166,302.8398 161.166,302.8398 " fill="none" style="stroke:#181818;stroke-width:0.5;"/><text fill="#000000" font-family="sans-serif" font-size="14" lengthAdjust="spacing" textLength="95.8125" x="55.3535" y="294.8867">orders-events</text><path d="M181.166,55 L285.5908,55 C290.5908,55 290.5908,68.2441 290.5908,68.2441 C290.5908,68.2441 290.5908,81.4883 285.5908,81.4883 L181.166,81.4883 C176.166,81.4883 176.166,68.2441 176.166,68.2441 C176.166,68.2441 176.166,55 181.166,55 " fill="#E2E2F0" style="stroke:#181818;stroke-width:0.5;"/><path d="M285.5908,55 C280.5908,55 280.5908,68.2441 280.5908,68.2441 C280.5908,81.4883 285.5908,81.4883 285.5908,81.4883 " fill="none" style="stroke:#181818;stroke-width:0.5;"/><text fill="#000000" font-family="sans-serif" font-size="14" lengthAdjust="spacing" textLength="94.4248" x="181.166" y="73.5352">billing-events</text><path d="M181.166,276.3516 L285.5908,276.3516 C290.5908,276.3516 290.5908,289.5957 290.5908,289.5957 C290.5908,289.5957 290.5908,302.8398 285.5908,302.8398 L181.166,302.8398 C176.166,302.8398 176.166,289.5957 176.166,289.5957 C176.166,289.5957 176.166,276.3516 181.166,276.3516 " fill="#E2E2F0" style="stroke:#181818;stroke-width:0.5;"/><path d="M285.5908,276.3516 C280.5908,276.3516 280.5908,289.5957 280.5908,289.5957 C280.5908,302.8398 285.5908,302.8398 285.5908,302.8398 " fill="none" style="stroke:#181818;stroke-width:0.5;"/><text fill="#000000" font-family="sans-serif" font-size="14" lengthAdjust="spacing" textLength="94.4248" x="181.166" y="294.8867">billing-events</text><rect fill="#E2E2F0" height="30.4883" rx="2.5" ry="2.5" style="stroke:#181818;stroke-width:0.5;" width="105.6973" x="300.5908" y="50"/><text fill="#000000" font-family="sans-serif" font-size="14" lengthAdjust="spacing" textLength="91.6973" x="307.5908" y="70.5352">order-service</text><rect fill="#E2E2F0" height="30.4883" rx="2.5" ry="2.5" style="stroke:#181818;stroke-width:0.5;" width="105.6973" x="300.5908" y="276.3516"/><text fill="#000000" font-family="sans-serif" font-size="14" lengthAdjust="spacing" textLength="91.6973" x="307.5908" y="296.8867">order-service</text><rect fill="#E2E2F0" height="30.4883" rx="2.5" ry="2.5" style="stroke:#181818;stroke-width:0.5;" width="111.4463" x="519.8506" y="50"/><text fill="#000000" font-family="sans-serif" font-size="14" lengthAdjust="spacing" textLength="97.4463" x="526.8506" y="70.5352">billing-service</text><rect fill="#E2E2F0" height="30.4883" rx="2.5" ry="2.5" style="stroke:#181818;stroke-width:0.5;" width="111.4463" x="519.8506" y="276.3516"/><text fill="#000000" font-family="sans-serif" font-size="14" lengthAdjust="spacing" textLength="97.4463" x="526.8506" y="296.8867">billing-service</text><rect fill="#E2E2F0" height="30.4883" rx="2.5" ry="2.5" style="stroke:#181818;stroke-width:0.5;" width="146.2686" x="641.2969" y="50"/><text fill="#000000" font-family="sans-serif" font-size="14" lengthAdjust="spacing" textLength="132.2686" x="648.2969" y="70.5352">notification-service</text><rect fill="#E2E2F0" height="30.4883" rx="2.5" ry="2.5" style="stroke:#181818;stroke-width:0.5;" width="146.2686" x="641.2969" y="276.3516"/><text fill="#000000" font-family="sans-serif" font-size="14" lengthAdjust="spacing" textLength="132.2686" x="648.2969" y="296.8867">notification-service</text><polygon fill="#181818" points="341.4395,108.7988,351.4395,112.7988,341.4395,116.7988,345.4395,112.7988" style="stroke:#181818;stroke-width:1.0;"/><line style="stroke:#181818;stroke-width:1.0;" x1="22.6768" x2="347.4395" y1="112.7988" y2="112.7988"/><text fill="#000000" font-family="sans-serif" font-size="13" lengthAdjust="spacing" textLength="84.1128" x="29.6768" y="108.0566">POST /orders</text><polygon fill="#181818" points="119.2598,138.1094,109.2598,142.1094,119.2598,146.1094,115.2598,142.1094" style="stroke:#181818;stroke-width:1.0;"/><line style="stroke:#181818;stroke-width:1.0;" x1="113.2598" x2="352.4395" y1="142.1094" y2="142.1094"/><text fill="#000000" font-family="sans-serif" font-size="13" lengthAdjust="spacing" textLength="85.1855" x="125.2598" y="137.3672">OrderCreated</text><polygon fill="#181818" points="33.6768,167.4199,23.6768,171.4199,33.6768,175.4199,29.6768,171.4199" style="stroke:#181818;stroke-width:1.0;"/><line style="stroke:#181818;stroke-width:1.0;" x1="27.6768" x2="352.4395" y1="171.4199" y2="171.4199"/><text fill="#000000" font-family="sans-serif" font-size="13" lengthAdjust="spacing" textLength="18.5859" x="39.6768" y="166.6777">OK</text><polygon fill="#181818" points="563.5737,196.7305,573.5737,200.7305,563.5737,204.7305,567.5737,200.7305" style="stroke:#181818;stroke-width:1.0;"/><line style="stroke:#181818;stroke-width:1.0;" x1="108.2598" x2="569.5737" y1="200.7305" y2="200.7305"/><text fill="#000000" font-family="sans-serif" font-size="13" lengthAdjust="spacing" textLength="302.2437" x="115.2598" y="195.9883">OrderCreated -&gt; POST /accounts/{id}/withdraw</text><polygon fill="#181818" points="244.3784,226.041,234.3784,230.041,244.3784,234.041,240.3784,230.041" style="stroke:#181818;stroke-width:1.0;"/><line style="stroke:#181818;stroke-width:1.0;" x1="238.3784" x2="574.5737" y1="230.041" y2="230.041"/><text fill="#000000" font-family="sans-serif" font-size="13" lengthAdjust="spacing" textLength="318.1953" x="250.3784" y="225.2988">MoneyWithdrawSucceeded / MoneyWithdrawFailed</text><polygon fill="#181818" points="702.4312,255.3516,712.4312,259.3516,702.4312,263.3516,706.4312,259.3516" style="stroke:#181818;stroke-width:1.0;"/><line style="stroke:#181818;stroke-width:1.0;" x1="233.3784" x2="708.4312" y1="259.3516" y2="259.3516"/><text fill="#000000" font-family="sans-serif" font-size="13" lengthAdjust="spacing" textLength="245.959" x="240.3784" y="254.6094">MoneyReserved -&gt; POST /notifications</text><!--SRC=[ROyx2y8m4CVtV8hGlNHtS15SH1GL7ELCJZqi2URH8k9tzz87fEeKSlVxFmvKi4v6Zqw2xrxnY1XH5jPfTBx41atmHThsazCTBdSOgJFLDPbhZWsZWHETTpaV34l-DQIma3EvtUmFikfTnVUQ5NaUuvlqNJY4WFeVtWKnjX9YeapPOyqiFRTBJDy6bBAHBwbUfDzLI-6c7RJYru0LaqFPSMqDFe-3P1-LGjJiNKqNIw2Q3n1JTIffRA0BAGXaJTwqa-ymJVAgEUu_]--></g></svg>