<svg xmlns="http://www.w3.org/2000/svg" xmlns:xlink="http://www.w3.org/1999/xlink" contentStyleType="text/css" height="936px" preserveAspectRatio="none" style="width:1309px;height:936px;background:#FFFFFF;" version="1.1" viewBox="0 0 1309 936" width="1309px" zoomAndPan="magnify"><defs/><g><line style="stroke:#181818;stroke-width:0.5;stroke-dasharray:5.0,5.0;" x1="22" x2="22" y1="81.4883" y2="855.9414"/><line style="stroke:#181818;stroke-width:0.5;stroke-dasharray:5.0,5.0;" x1="98.3535" x2="98.3535" y1="81.4883" y2="855.9414"/><line style="stroke:#181818;stroke-width:0.5;stroke-dasharray:5.0,5.0;" x1="472.5981" x2="472.5981" y1="81.4883" y2="855.9414"/><line style="stroke:#181818;stroke-width:0.5;stroke-dasharray:5.0,5.0;" x1="806.7661" x2="806.7661" y1="81.4883" y2="855.9414"/><line style="stroke:#181818;stroke-width:0.5;stroke-dasharray:5.0,5.0;" x1="943.2124" x2="943.2124" y1="81.4883" y2="855.9414"/><line style="stroke:#181818;stroke-width:0.5;stroke-dasharray:5.0,5.0;" x1="1085.2017" x2="1085.2017" y1="81.4883" y2="855.9414"/><line style="stroke:#181818;stroke-width:0.5;stroke-dasharray:5.0,5.0;" x1="1230.0249" x2="1230.0249" y1="81.4883" y2="855.9414"/><text fill="#000000" font-family="sans-serif" font-size="14" lengthAdjust="spacing" textLength="29.3535" x="5" y="78.5352">user</text><ellipse cx="22.6768" cy="13.5" fill="#E2E2F0" rx="8" ry="8" style="stroke:#181818;stroke-width:0.5;"/><path d="M22.6768,21.5 L22.6768,48.5 M9.6768,29.5 L35.6768,29.5 M22.6768,48.5 L9.6768,63.5 M22.6768,48.5 L35.6768,63.5 " fill="none" style="stroke:#181818;stroke-width:0.5;"/><text fill="#000000" font-family="sans-serif" font-size="14" lengthAdjust="spacing" textLength="29.3535" x="5" y="868.4766">user</text><ellipse cx="22.6768" cy="879.9297" fill="#E2E2F0" rx="8" ry="8" style="stroke:#181818;stroke-width:0.5;"/><path d="M22.6768,887.9297 L22.6768,914.9297 M9.6768,895.9297 L35.6768,895.9297 M22.6768,914.9297 L9.6768,929.9297 M22.6768,914.9297 L35.6768,929.9297 " fill="none" style="stroke:#181818;stroke-width:0.5;"/><path d="M55.3535,55 L141.4512,55 C146.4512,55 146.4512,68.2441 146.4512,68.2441 C146.4512,68.2441 146.4512,81.4883 141.4512,81.4883 L55.3535,81.4883 C50.3535,81.4883 50.3535,68.2441 50.3535,68.2441 C50.3535,68.2441 50.3535,55 55.3535,55 " fill="#E2E2F0" style="stroke:#181818;stroke-width:0.5;"/><path d="M141.4512,55 C136.4512,55 136.4512,68.2441 136.4512,68.2441 C136.4512,81.4883 141.4512,81.4883 141.4512,81.4883 " fill="none" style="stroke:#181818;stroke-width:0.5;"/><text fill="#000000" font-family="sans-serif" font-size="14" lengthAdjust="spacing" textLength="76.0977" x="55.3535" y="73.5352">order-saga</text><path d="M55.3535,854.9414 L141.4512,854.9414 C146.4512,854.9414 146.4512,868.1855 146.4512,868.1855 C146.4512,868.1855 146.4512,881.4297 141.4512,881.4297 L55.3535,881.4297 C50.3535,881.4297 50.3535,868.1855 50.3535,868.1855 C50.3535,868.1855 50.3535,854.9414 55.3535,854.9414 " fill="#E2E2F0" style="stroke:#181818;stroke-width:0.5;"/><path d="M141.4512,854.9414 C136.4512,854.9414 136.4512,868.1855 136.4512,868.1855 C136.4512,881.4297 141.4512,881.4297 141.4512,881.4297 " fill="none" style="stroke:#181818;stroke-width:0.5;"/><text fill="#000000" font-family="sans-serif" font-size="14" lengthAdjust="spacing" textLength="76.0977" x="55.3535" y="873.4766">order-saga</text><rect fill="#E2E2F0" height="30.4883" rx="2.5" ry="2.5" style="stroke:#181818;stroke-width:0.5;" width="105.6973" x="420.5981" y="50"/><text fill="#000000" font-family="sans-serif" font-size="14" lengthAdjust="spacing" textLength="91.6973" x="427.5981" y="70.5352">order-service</text><rect fill="#E2E2F0" height="30.4883" rx="2.5" ry="2.5" style="stroke:#181818;stroke-width:0.5;" width="105.6973" x="420.5981" y="854.9414"/><text fill="#000000" font-family="sans-serif" font-size="14" lengthAdjust="spacing" textLength="91.6973" x="427.5981" y="875.4766">order-service</text><rect fill="#E2E2F0" height="30.4883" rx="2.5" ry="2.5" style="stroke:#181818;stroke-width:0.5;" width="111.4463" x="751.7661" y="50"/><text fill="#000000" font-family="sans-serif" font-size="14" lengthAdjust="spacing" textLength="97.4463" x="758.7661" y="70.5352">billing-service</text><rect fill="#E2E2F0" height="30.4883" rx="2.5" ry="2.5" style="stroke:#181818;stroke-width:0.5;" width="111.4463" x="751.7661" y="854.9414"/><text fill="#000000" font-family="sans-serif" font-size="14" lengthAdjust="spacing" textLength="97.4463" x="758.7661" y="875.4766">billing-service</text><rect fill="#E2E2F0" height="30.4883" rx="2.5" ry="2.5" style="stroke:#181818;stroke-width:0.5;" width="141.9893" x="873.2124" y="50"/><text fill="#000000" font-family="sans-serif" font-size="14" lengthAdjust="spacing" textLength="127.9893" x="880.2124" y="70.5352">warehouse-service</text><rect fill="#E2E2F0" height="30.4883" rx="2.5" ry="2.5" style="stroke:#181818;stroke-width:0.5;" width="141.9893" x="873.2124" y="854.9414"/><text fill="#000000" font-family="sans-serif" font-size="14" lengthAdjust="spacing" textLength="127.9893" x="880.2124" y="875.4766">warehouse-service</text><rect fill="#E2E2F0" height="30.4883" rx="2.5" ry="2.5" style="stroke:#181818;stroke-width:0.5;" width="121.8232" x="1025.2017" y="50"/><text fill="#000000" font-family="sans-serif" font-size="14" lengthAdjust="spacing" textLength="107.8232" x="1032.2017" y="70.5352">delivery-service</text><rect fill="#E2E2F0" height="30.4883" rx="2.5" ry="2.5" style="stroke:#181818;stroke-width:0.5;" width="121.8232" x="1025.2017" y="854.9414"/><text fill="#000000" font-family="sans-serif" font-size="14" lengthAdjust="spacing" textLength="107.8232" x="1032.2017" y="875.4766">delivery-service</text><rect fill="#E2E2F0" height="30.4883" rx="2.5" ry="2.5" style="stroke:#181818;stroke-width:0.5;" width="146.2686" x="1157.0249" y="50"/><text fill="#000000" font-family="sans-serif" font-size="14" lengthAdjust="spacing" textLength="132.2686" x="1164.0249" y="70.5352">notification-service</text><rect fill="#E2E2F0" height="30.4883" rx="2.5" ry="2.5" style="stroke:#181818;stroke-width:0.5;" width="146.2686" x="1157.0249" y="854.9414"/><text fill="#000000" font-family="sans-serif" font-size="14" lengthAdjust="spacing" textLength="132.2686" x="1164.0249" y="875.4766">notification-service</text><polygon fill="#181818" points="461.4468,108.7988,471.4468,112.7988,461.4468,116.7988,465.4468,112.7988" style="stroke:#181818;stroke-width:1.0;"/><line style="stroke:#181818;stroke-width:1.0;" x1="22.6768" x2="467.4468" y1="112.7988" y2="112.7988"/><text fill="#000000" font-family="sans-serif" font-size="13" lengthAdjust="spacing" textLength="84.1128" x="29.6768" y="108.0566">POST /orders</text><line style="stroke:#181818;stroke-width:1.0;" x1="473.4468" x2="515.4468" y1="142.1094" y2="142.1094"/><line style="stroke:#181818;stroke-width:1.0;" x1="515.4468" x2="515.4468" y1="142.1094" y2="155.1094"/><line style="stroke:#181818;stroke-width:1.0;" x1="474.4468" x2="515.4468" y1="155.1094" y2="155.1094"/><polygon fill="#181818" points="484.4468,151.1094,474.4468,155.1094,484.4468,159.1094,480.4468,155.1094" style="stroke:#181818;stroke-width:1.0;"/><text fill="#000000" font-family="sans-serif" font-size="13" lengthAdjust="spacing" textLength="268.7534" x="480.4468" y="137.3672">&#1089;&#1086;&#1079;&#1076;&#1072;&#1085;&#1080;&#1077; &#1079;&#1072;&#1082;&#1072;&#1079;&#1072; (WithdrawMoneyPending)</text><polygon fill="#181818" points="109.4023,180.4199,99.4023,184.4199,109.4023,188.4199,105.4023,184.4199" style="stroke:#181818;stroke-width:1.0;"/><line style="stroke:#181818;stroke-width:1.0;" x1="103.4023" x2="472.4468" y1="184.4199" y2="184.4199"/><text fill="#000000" font-family="sans-serif" font-size="13" lengthAdjust="spacing" textLength="164.4741" x="115.4023" y="179.6777">WithdrawMoneyCommand</text><polygon fill="#181818" points="33.6768,209.7305,23.6768,213.7305,33.6768,217.7305,29.6768,213.7305" style="stroke:#181818;stroke-width:1.0;"/><line style="stroke:#181818;stroke-width:1.0;stroke-dasharray:2.0,2.0;" x1="27.6768" x2="472.4468" y1="213.7305" y2="213.7305"/><text fill="#000000" font-family="sans-serif" font-size="13" lengthAdjust="spacing" textLength="52.4888" x="39.6768" y="208.9883">order_id</text><polygon fill="#181818" points="795.4893,239.041,805.4893,243.041,795.4893,247.041,799.4893,243.041" style="stroke:#181818;stroke-width:1.0;"/><line style="stroke:#181818;stroke-width:1.0;" x1="98.4023" x2="801.4893" y1="243.041" y2="243.041"/><text fill="#000000" font-family="sans-serif" font-size="13" lengthAdjust="spacing" textLength="381.5322" x="105.4023" y="238.2988">WithdrawMoneyCommand -&gt; POST /accounts/{id}/withdraw</text><polygon fill="#181818" points="109.4023,268.3516,99.4023,272.3516,109.4023,276.3516,105.4023,272.3516" style="stroke:#181818;stroke-width:1.0;"/><line style="stroke:#181818;stroke-width:1.0;stroke-dasharray:2.0,2.0;" x1="103.4023" x2="806.4893" y1="272.3516" y2="272.3516"/><text fill="#000000" font-family="sans-serif" font-size="13" lengthAdjust="spacing" textLength="166.2705" x="115.4023" y="267.6094">WithdrawMoneySucceeded</text><polygon fill="#181818" points="461.4468,297.6621,471.4468,301.6621,461.4468,305.6621,465.4468,301.6621" style="stroke:#181818;stroke-width:1.0;"/><line style="stroke:#181818;stroke-width:1.0;" x1="98.4023" x2="467.4468" y1="301.6621" y2="301.6621"/><text fill="#000000" font-family="sans-serif" font-size="13" lengthAdjust="spacing" textLength="351.0444" x="105.4023" y="296.9199">WithdrawMoneySucceeded -&gt; PUT /orders/{id}/process</text><line style="stroke:#181818;stroke-width:1.0;" x1="473.4468" x2="515.4468" y1="330.9727" y2="330.9727"/><line style="stroke:#181818;stroke-width:1.0;" x1="515.4468" x2="515.4468" y1="330.9727" y2="343.9727"/><line style="stroke:#181818;stroke-width:1.0;" x1="474.4468" x2="515.4468" y1="343.9727" y2="343.9727"/><polygon fill="#181818" points="484.4468,339.9727,474.4468,343.9727,484.4468,347.9727,480.4468,343.9727" style="stroke:#181818;stroke-width:1.0;"/><text fill="#000000" font-family="sans-serif" font-size="13" lengthAdjust="spacing" textLength="320.0425" x="480.4468" y="326.2305">&#1086;&#1073;&#1085;&#1086;&#1074;&#1083;&#1077;&#1085;&#1080;&#1077; &#1089;&#1090;&#1072;&#1090;&#1091;&#1089;&#1072; &#1079;&#1072;&#1082;&#1072;&#1079;&#1072; (ReserveStockPending)</text><polygon fill="#181818" points="109.4023,369.2832,99.4023,373.2832,109.4023,377.2832,105.4023,373.2832" style="stroke:#181818;stroke-width:1.0;"/><line style="stroke:#181818;stroke-width:1.0;stroke-dasharray:2.0,2.0;" x1="103.4023" x2="472.4468" y1="373.2832" y2="373.2832"/><text fill="#000000" font-family="sans-serif" font-size="13" lengthAdjust="spacing" textLength="147.4116" x="115.4023" y="368.541">ReserveStockCommand</text><polygon fill="#181818" points="932.207,398.5938,942.207,402.5938,932.207,406.5938,936.207,402.5938" style="stroke:#181818;stroke-width:1.0;"/><line style="stroke:#181818;stroke-width:1.0;" x1="98.4023" x2="938.207" y1="402.5938" y2="402.5938"/><text fill="#000000" font-family="sans-serif" font-size="13" lengthAdjust="spacing" textLength="323.2163" x="105.4023" y="397.8516">ReserveStockCommand -&gt; PUT /items/{id}/reserve</text><polygon fill="#181818" points="109.4023,427.9043,99.4023,431.9043,109.4023,435.9043,105.4023,431.9043" style="stroke:#181818;stroke-width:1.0;"/><line style="stroke:#181818;stroke-width:1.0;stroke-dasharray:2.0,2.0;" x1="103.4023" x2="943.207" y1="431.9043" y2="431.9043"/><text fill="#000000" font-family="sans-serif" font-size="13" lengthAdjust="spacing" textLength="149.208" x="115.4023" y="427.1621">ReserveStockSucceeded</text><polygon fill="#181818" points="461.4468,457.2148,471.4468,461.2148,461.4468,465.2148,465.4468,461.2148" style="stroke:#181818;stroke-width:1.0;"/><line style="stroke:#181818;stroke-width:1.0;" x1="98.4023" x2="467.4468" y1="461.2148" y2="461.2148"/><text fill="#000000" font-family="sans-serif" font-size="13" lengthAdjust="spacing" textLength="333.9819" x="105.4023" y="456.4727">ReserveStockSucceeded -&gt; PUT /orders/{id}/process</text><line style="stroke:#181818;stroke-width:1.0;" x1="473.4468" x2="515.4468" y1="490.5254" y2="490.5254"/><line style="stroke:#181818;stroke-width:1.0;" x1="515.4468" x2="515.4468" y1="490.5254" y2="503.5254"/><line style="stroke:#181818;stroke-width:1.0;" x1="474.4468" x2="515.4468" y1="503.5254" y2="503.5254"/><polygon fill="#181818" points="484.4468,499.5254,474.4468,503.5254,484.4468,507.5254,480.4468,503.5254" style="stroke:#181818;stroke-width:1.0;"/><text fill="#000000" font-family="sans-serif" font-size="13" lengthAdjust="spacing" textLength="309.5435" x="480.4468" y="485.7832">&#1086;&#1073;&#1085;&#1086;&#1074;&#1083;&#1077;&#1085;&#1080;&#1077; &#1089;&#1090;&#1072;&#1090;&#1091;&#1089;&#1072; &#1079;&#1072;&#1082;&#1072;&#1079;&#1072; (ReserveSlotPending)</text><polygon fill="#181818" points="109.4023,528.8359,99.4023,532.8359,109.4023,536.8359,105.4023,532.8359" style="stroke:#181818;stroke-width:1.0;"/><line style="stroke:#181818;stroke-width:1.0;" x1="103.4023" x2="472.4468" y1="532.8359" y2="532.8359"/><text fill="#000000" font-family="sans-serif" font-size="13" lengthAdjust="spacing" textLength="136.9126" x="115.4023" y="528.0938">ReserveSlotCommand</text><polygon fill="#181818" points="1074.1133,558.1465,1084.1133,562.1465,1074.1133,566.1465,1078.1133,562.1465" style="stroke:#181818;stroke-width:1.0;"/><line style="stroke:#181818;stroke-width:1.0;" x1="98.4023" x2="1080.1133" y1="562.1465" y2="562.1465"/><text fill="#000000" font-family="sans-serif" font-size="13" lengthAdjust="spacing" textLength="374.6196" x="105.4023" y="557.4043">ReserveSlotCommand -&gt; PUT /slots/{id}/schedule-delivery</text><polygon fill="#181818" points="109.4023,587.457,99.4023,591.457,109.4023,595.457,105.4023,591.457" style="stroke:#181818;stroke-width:1.0;"/><line style="stroke:#181818;stroke-width:1.0;stroke-dasharray:2.0,2.0;" x1="103.4023" x2="1085.1133" y1="591.457" y2="591.457"/><text fill="#000000" font-family="sans-serif" font-size="13" lengthAdjust="spacing" textLength="138.709" x="115.4023" y="586.7148">ReserveSlotSucceeded</text><polygon fill="#181818" points="461.4468,616.7676,471.4468,620.7676,461.4468,624.7676,465.4468,620.7676" style="stroke:#181818;stroke-width:1.0;"/><line style="stroke:#181818;stroke-width:1.0;" x1="98.4023" x2="467.4468" y1="620.7676" y2="620.7676"/><text fill="#000000" font-family="sans-serif" font-size="13" lengthAdjust="spacing" textLength="333.9819" x="105.4023" y="616.0254">ReserveStockSucceeded -&gt; PUT /orders/{id}/process</text><line style="stroke:#181818;stroke-width:1.0;" x1="473.4468" x2="515.4468" y1="665.3887" y2="665.3887"/><line style="stroke:#181818;stroke-width:1.0;" x1="515.4468" x2="515.4468" y1="665.3887" y2="678.3887"/><line style="stroke:#181818;stroke-width:1.0;" x1="474.4468" x2="515.4468" y1="678.3887" y2="678.3887"/><polygon fill="#181818" points="484.4468,674.3887,474.4468,678.3887,484.4468,682.3887,480.4468,678.3887" style="stroke:#181818;stroke-width:1.0;"/><text fill="#000000" font-family="sans-serif" font-size="13" lengthAdjust="spacing" textLength="275.0947" x="480.4468" y="645.3359">&#1086;&#1073;&#1085;&#1086;&#1074;&#1083;&#1077;&#1085;&#1080;&#1077; &#1089;&#1090;&#1072;&#1090;&#1091;&#1089;&#1072; &#1079;&#1072;&#1082;&#1072;&#1079;&#1072; (NotifyPending)</text><text fill="#000000" font-family="sans-serif" font-size="13" lengthAdjust="spacing" textLength="217.2358" x="480.4468" y="660.6465">&#1087;&#1088;&#1086;&#1081;&#1076;&#1077;&#1085;&#1072; &#1085;&#1077;&#1087;&#1086;&#1074;&#1086;&#1088;&#1090;&#1085;&#1072;&#1103; &#1086;&#1087;&#1077;&#1088;&#1072;&#1094;&#1080;&#1103;</text><polygon fill="#181818" points="109.4023,703.6992,99.4023,707.6992,109.4023,711.6992,105.4023,707.6992" style="stroke:#181818;stroke-width:1.0;"/><line style="stroke:#181818;stroke-width:1.0;" x1="103.4023" x2="472.4468" y1="707.6992" y2="707.6992"/><text fill="#000000" font-family="sans-serif" font-size="13" lengthAdjust="spacing" textLength="102.4639" x="115.4023" y="702.957">NotifyCommand</text><polygon fill="#181818" points="1218.1592,733.0098,1228.1592,737.0098,1218.1592,741.0098,1222.1592,737.0098" style="stroke:#181818;stroke-width:1.0;"/><line style="stroke:#181818;stroke-width:1.0;" x1="98.4023" x2="1224.1592" y1="737.0098" y2="737.0098"/><text fill="#000000" font-family="sans-serif" font-size="13" lengthAdjust="spacing" textLength="243.7056" x="105.4023" y="732.2676">NotifyCommand -&gt; POST /notification</text><polygon fill="#181818" points="109.4023,762.3203,99.4023,766.3203,109.4023,770.3203,105.4023,766.3203" style="stroke:#181818;stroke-width:1.0;"/><line style="stroke:#181818;stroke-width:1.0;stroke-dasharray:2.0,2.0;" x1="103.4023" x2="1229.1592" y1="766.3203" y2="766.3203"/><text fill="#000000" font-family="sans-serif" font-size="13" lengthAdjust="spacing" textLength="104.2603" x="115.4023" y="761.5781">NotifySucceeded</text><polygon fill="#181818" points="461.4468,791.6309,471.4468,795.6309,461.4468,799.6309,465.4468,795.6309" style="stroke:#181818;stroke-width:1.0;"/><line style="stroke:#181818;stroke-width:1.0;" x1="98.4023" x2="467.4468" y1="795.6309" y2="795.6309"/><text fill="#000000" font-family="sans-serif" font-size="13" lengthAdjust="spacing" textLength="289.0342" x="105.4023" y="790.8887">NotifySucceeded -&gt; PUT /orders/{id}/process</text><line style="stroke:#181818;stroke-width:1.0;" x1="473.4468" x2="515.4468" y1="824.9414" y2="824.9414"/><line style="stroke:#181818;stroke-width:1.0;" x1="515.4468" x2="515.4468" y1="824.9414" y2="837.9414"/><line style="stroke:#181818;stroke-width:1.0;" x1="474.4468" x2="515.4468" y1="837.9414" y2="837.9414"/><polygon fill="#181818" points="484.4468,833.9414,474.4468,837.9414,484.4468,841.9414,480.4468,837.9414" style="stroke:#181818;stroke-width:1.0;"/><text fill="#000000" font-family="sans-serif" font-size="13" lengthAdjust="spacing" textLength="255.8994" x="480.4468" y="820.1992">&#1086;&#1073;&#1085;&#1086;&#1074;&#1083;&#1077;&#1085;&#1080;&#1077; &#1089;&#1090;&#1072;&#1090;&#1091;&#1089;&#1072; &#1079;&#1072;&#1082;&#1072;&#1079;&#1072; (OrderDone)</text><!--SRC=[rPIxJiCm58PtFqNKYGvHzmuii78H1R4W8MCVgDKq1YUXgX0I5ucLLmc8YflQleBzHXodQPgsRcadn52bTix_-p_dKqnPB9MNHA0y6cLFSfL00bv5AWxAZ-W5hTXNsVBKBazRzBn52Sb4_cPH2UfQCAXuTMz_ht7erRBjYCo-TYhClHxeT_scKztN7xhduIBLN_Z3fxTnBE8cLxIp8qFexaF8HNXHTJdFfaJhAUsMRBTfoEUbgCtwgUSMWXCoPsQZduaWmDFBuLqdsDhH62XZCWdZg7OZ-6sjazUIUID_XVoDX3403elIpGtMhSxI7HMCHj4kbMGGhGWCSRqWge5-rT-wbqCpz-P1f-R1F2BFT8RX0LWvD6B9MeiHkcTGreuHkWVGeGgQ4b6MmphanGH43Ery06fKHbmcAmHRcurJ_9Te0Xcl-N6LbCkvS0Z4DQYkg_-9k6W-mhsyzuWrWIS1-6CBuZ3pVuttV-diobYS5xVUIQY7vWxrdtXRMZsMz_7FCBCSc3jqmatpR4yQwXxMfkP9VvZd5P6EZbjECxGrWj5OoB3St9HsSWMMoya2iRyipThmPcH_WMtFMcpZjLlz0G00]--></g></svg>