<svg xmlns="http://www.w3.org/2000/svg" xmlns:xlink="http://www.w3.org/1999/xlink" contentStyleType="text/css" height="936px" preserveAspectRatio="none" style="width:1343px;height:936px;background:#FFFFFF;" version="1.1" viewBox="0 0 1343 936" width="1343px" zoomAndPan="magnify"><defs/><g><line style="stroke:#181818;stroke-width:0.5;stroke-dasharray:5.0,5.0;" x1="22" x2="22" y1="81.4883" y2="855.9414"/><line style="stroke:#181818;stroke-width:0.5;stroke-dasharray:5.0,5.0;" x1="98.3535" x2="98.3535" y1="81.4883" y2="855.9414"/><line style="stroke:#181818;stroke-width:0.5;stroke-dasharray:5.0,5.0;" x1="506.5454" x2="506.5454" y1="81.4883" y2="855.9414"/><line style="stroke:#181818;stroke-width:0.5;stroke-dasharray:5.0,5.0;" x1="840.7134" x2="840.7134" y1="81.4883" y2="855.9414"/><line style="stroke:#181818;stroke-width:0.5;stroke-dasharray:5.0,5.0;" x1="977.1597" x2="977.1597" y1="81.4883" y2="855.9414"/><line style="stroke:#181818;stroke-width:0.5;stroke-dasharray:5.0,5.0;" x1="1119.1489" x2="1119.1489" y1="81.4883" y2="855.9414"/><line style="stroke:#181818;stroke-width:0.5;stroke-dasharray:5.0,5.0;" x1="1263.9722" x2="1263.9722" y1="81.4883" y2="855.9414"/><text fill="#000000" font-family="sans-serif" font-size="14" lengthAdjust="spacing" textLength="29.3535" x="5" y="78.5352">user</text><ellipse cx="22.6768" cy="13.5" fill="#E2E2F0" rx="8" ry="8" style="stroke:#181818;stroke-width:0.5;"/><path d="M22.6768,21.5 L22.6768,48.5 M9.6768,29.5 L35.6768,29.5 M22.6768,48.5 L9.6768,63.5 M22.6768,48.5 L35.6768,63.5 " fill="none" style="stroke:#181818;stroke-width:0.5;"/><text fill="#000000" font-family="sans-serif" font-size="14" lengthAdjust="spacing" textLength="29.3535" x="5" y="868.4766">user</text><ellipse cx="22.6768" cy="879.9297" fill="#E2E2F0" rx="8" ry="8" style="stroke:#181818;stroke-width:0.5;"/><path d="M22.6768,887.9297 L22.6768,914.9297 M9.6768,895.9297 L35.6768,895.9297 M22.6768,914.9297 L9.6768,929.9297 M22.6768,914.9297 L35.6768,929.9297 " fill="none" style="stroke:#181818;stroke-width:0.5;"/><path d="M55.3535,55 L141.4512,55 C146.4512,55 146.4512,68.2441 146.4512,68.2441 C146.4512,68.2441 146.4512,81.4883 141.4512,81.4883 L55.3535,81.4883 C50.3535,81.4883 50.3535,68.2441 50.3535,68.2441 C50.3535,68.2441 50.3535,55 55.3535,55 " fill="#E2E2F0" style="stroke:#181818;stroke-width:0.5;"/><path d="M141.4512,55 C136.4512,55 136.4512,68.2441 136.4512,68.2441 C136.4512,81.4883 141.4512,81.4883 141.4512,81.4883 " fill="none" style="stroke:#181818;stroke-width:0.5;"/><text fill="#000000" font-family="sans-serif" font-size="14" lengthAdjust="spacing" textLength="76.0977" x="55.3535" y="73.5352">order-saga</text><path d="M55.3535,854.9414 L141.4512,854.9414 C146.4512,854.9414 146.4512,868.1855 146.4512,868.1855 C146.4512,868.1855 146.4512,881.4297 141.4512,881.4297 L55.3535,881.4297 C50.3535,881.4297 50.3535,868.1855 50.3535,868.1855 C50.3535,868.1855 50.3535,854.9414 55.3535,854.9414 " fill="#E2E2F0" style="stroke:#181818;stroke-width:0.5;"/><path d="M141.4512,854.9414 C136.4512,854.9414 136.4512,868.1855 136.4512,868.1855 C136.4512,881.4297 141.4512,881.4297 141.4512,881.4297 " fill="none" style="stroke:#181818;stroke-width:0.5;"/><text fill="#000000" font-family="sans-serif" font-size="14" lengthAdjust="spacing" textLength="76.0977" x="55.3535" y="873.4766">order-saga</text><rect fill="#E2E2F0" height="30.4883" rx="2.5" ry="2.5" style="stroke:#181818;stroke-width:0.5;" width="105.6973" x="454.5454" y="50"/><text fill="#000000" font-family="sans-serif" font-size="14" lengthAdjust="spacing" textLength="91.6973" x="461.5454" y="70.5352">order-service</text><rect fill="#E2E2F0" height="30.4883" rx="2.5" ry="2.5" style="stroke:#181818;stroke-width:0.5;" width="105.6973" x="454.5454" y="854.9414"/><text fill="#000000" font-family="sans-serif" font-size="14" lengthAdjust="spacing" textLength="91.6973" x="461.5454" y="875.4766">order-service</text><rect fill="#E2E2F0" height="30.4883" rx="2.5" ry="2.5" style="stroke:#181818;stroke-width:0.5;" width="111.4463" x="785.7134" y="50"/><text fill="#000000" font-family="sans-serif" font-size="14" lengthAdjust="spacing" textLength="97.4463" x="792.7134" y="70.5352">billing-service</text><rect fill="#E2E2F0" height="30.4883" rx="2.5" ry="2.5" style="stroke:#181818;stroke-width:0.5;" width="111.4463" x="785.7134" y="854.9414"/><text fill="#000000" font-family="sans-serif" font-size="14" lengthAdjust="spacing" textLength="97.4463" x="792.7134" y="875.4766">billing-service</text><rect fill="#E2E2F0" height="30.4883" rx="2.5" ry="2.5" style="stroke:#181818;stroke-width:0.5;" width="141.9893" x="907.1597" y="50"/><text fill="#000000" font-family="sans-serif" font-size="14" lengthAdjust="spacing" textLength="127.9893" x="914.1597" y="70.5352">warehouse-service</text><rect fill="#E2E2F0" height="30.4883" rx="2.5" ry="2.5" style="stroke:#181818;stroke-width:0.5;" width="141.9893" x="907.1597" y="854.9414"/><text fill="#000000" font-family="sans-serif" font-size="14" lengthAdjust="spacing" textLength="127.9893" x="914.1597" y="875.4766">warehouse-service</text><rect fill="#E2E2F0" height="30.4883" rx="2.5" ry="2.5" style="stroke:#181818;stroke-width:0.5;" width="121.8232" x="1059.1489" y="50"/><text fill="#000000" font-family="sans-serif" font-size="14" lengthAdjust="spacing" textLength="107.8232" x="1066.1489" y="70.5352">delivery-service</text><rect fill="#E2E2F0" height="30.4883" rx="2.5" ry="2.5" style="stroke:#181818;stroke-width:0.5;" width="121.8232" x="1059.1489" y="854.9414"/><text fill="#000000" font-family="sans-serif" font-size="14" lengthAdjust="spacing" textLength="107.8232" x="1066.1489" y="875.4766">delivery-service</text><rect fill="#E2E2F0" height="30.4883" rx="2.5" ry="2.5" style="stroke:#181818;stroke-width:0.5;" width="146.2686" x="1190.9722" y="50"/><text fill="#000000" font-family="sans-serif" font-size="14" lengthAdjust="spacing" textLength="132.2686" x="1197.9722" y="70.5352">notification-service</text><rect fill="#E2E2F0" height="30.4883" rx="2.5" ry="2.5" style="stroke:#181818;stroke-width:0.5;" width="146.2686" x="1190.9722" y="854.9414"/><text fill="#000000" font-family="sans-serif" font-size="14" lengthAdjust="spacing" textLength="132.2686" x="1197.9722" y="875.4766">notification-service</text><polygon fill="#181818" points="495.394,108.7988,505.394,112.7988,495.394,116.7988,499.394,112.7988" style="stroke:#181818;stroke-width:1.0;"/><line style="stroke:#181818;stroke-width:1.0;" x1="22.6768" x2="501.394" y1="112.7988" y2="112.7988"/><text fill="#000000" font-family="sans-serif" font-size="13" lengthAdjust="spacing" textLength="84.1128" x="29.6768" y="108.0566">POST /orders</text><line style="stroke:#181818;stroke-width:1.0;" x1="507.394" x2="549.394" y1="142.1094" y2="142.1094"/><line style="stroke:#181818;stroke-width:1.0;" x1="549.394" x2="549.394" y1="142.1094" y2="155.1094"/><line style="stroke:#181818;stroke-width:1.0;" x1="508.394" x2="549.394" y1="155.1094" y2="155.1094"/><polygon fill="#181818" points="518.394,151.1094,508.394,155.1094,518.394,159.1094,514.394,155.1094" style="stroke:#181818;stroke-width:1.0;"/><text fill="#000000" font-family="sans-serif" font-size="13" lengthAdjust="spacing" textLength="268.7534" x="514.394" y="137.3672">&#1089;&#1086;&#1079;&#1076;&#1072;&#1085;&#1080;&#1077; &#1079;&#1072;&#1082;&#1072;&#1079;&#1072; (WithdrawMoneyPending)</text><polygon fill="#181818" points="109.4023,180.4199,99.4023,184.4199,109.4023,188.4199,105.4023,184.4199" style="stroke:#181818;stroke-width:1.0;"/><line style="stroke:#181818;stroke-width:1.0;" x1="103.4023" x2="506.394" y1="184.4199" y2="184.4199"/><text fill="#000000" font-family="sans-serif" font-size="13" lengthAdjust="spacing" textLength="164.4741" x="115.4023" y="179.6777">WithdrawMoneyCommand</text><polygon fill="#181818" points="33.6768,209.7305,23.6768,213.7305,33.6768,217.7305,29.6768,213.7305" style="stroke:#181818;stroke-width:1.0;"/><line style="stroke:#181818;stroke-width:1.0;stroke-dasharray:2.0,2.0;" x1="27.6768" x2="506.394" y1="213.7305" y2="213.7305"/><text fill="#000000" font-family="sans-serif" font-size="13" lengthAdjust="spacing" textLength="52.4888" x="39.6768" y="208.9883">order_id</text><polygon fill="#181818" points="829.4365,239.041,839.4365,243.041,829.4365,247.041,833.4365,243.041" style="stroke:#181818;stroke-width:1.0;"/><line style="stroke:#181818;stroke-width:1.0;" x1="98.4023" x2="835.4365" y1="243.041" y2="243.041"/><text fill="#000000" font-family="sans-serif" font-size="13" lengthAdjust="spacing" textLength="381.5322" x="105.4023" y="238.2988">WithdrawMoneyCommand -&gt; POST /accounts/{id}/withdraw</text><polygon fill="#181818" points="109.4023,268.3516,99.4023,272.3516,109.4023,276.3516,105.4023,272.3516" style="stroke:#181818;stroke-width:1.0;"/><line style="stroke:#181818;stroke-width:1.0;stroke-dasharray:2.0,2.0;" x1="103.4023" x2="840.4365" y1="272.3516" y2="272.3516"/><text fill="#000000" font-family="sans-serif" font-size="13" lengthAdjust="spacing" textLength="200.2178" x="115.4023" y="267.6094">WithdrawMoneySucceededEvent</text><polygon fill="#181818" points="495.394,297.6621,505.394,301.6621,495.394,305.6621,499.394,301.6621" style="stroke:#181818;stroke-width:1.0;"/><line style="stroke:#181818;stroke-width:1.0;" x1="98.4023" x2="501.394" y1="301.6621" y2="301.6621"/><text fill="#000000" font-family="sans-serif" font-size="13" lengthAdjust="spacing" textLength="384.9917" x="105.4023" y="296.9199">WithdrawMoneySucceededEvent -&gt; PUT /orders/{id}/process</text><line style="stroke:#181818;stroke-width:1.0;" x1="507.394" x2="549.394" y1="330.9727" y2="330.9727"/><line style="stroke:#181818;stroke-width:1.0;" x1="549.394" x2="549.394" y1="330.9727" y2="343.9727"/><line style="stroke:#181818;stroke-width:1.0;" x1="508.394" x2="549.394" y1="343.9727" y2="343.9727"/><polygon fill="#181818" points="518.394,339.9727,508.394,343.9727,518.394,347.9727,514.394,343.9727" style="stroke:#181818;stroke-width:1.0;"/><text fill="#000000" font-family="sans-serif" font-size="13" lengthAdjust="spacing" textLength="320.0425" x="514.394" y="326.2305">&#1086;&#1073;&#1085;&#1086;&#1074;&#1083;&#1077;&#1085;&#1080;&#1077; &#1089;&#1090;&#1072;&#1090;&#1091;&#1089;&#1072; &#1079;&#1072;&#1082;&#1072;&#1079;&#1072; (ReserveStockPending)</text><polygon fill="#181818" points="109.4023,369.2832,99.4023,373.2832,109.4023,377.2832,105.4023,373.2832" style="stroke:#181818;stroke-width:1.0;"/><line style="stroke:#181818;stroke-width:1.0;stroke-dasharray:2.0,2.0;" x1="103.4023" x2="506.394" y1="373.2832" y2="373.2832"/><text fill="#000000" font-family="sans-serif" font-size="13" lengthAdjust="spacing" textLength="147.4116" x="115.4023" y="368.541">ReserveStockCommand</text><polygon fill="#181818" points="966.1543,398.5938,976.1543,402.5938,966.1543,406.5938,970.1543,402.5938" style="stroke:#181818;stroke-width:1.0;"/><line style="stroke:#181818;stroke-width:1.0;" x1="98.4023" x2="972.1543" y1="402.5938" y2="402.5938"/><text fill="#000000" font-family="sans-serif" font-size="13" lengthAdjust="spacing" textLength="323.2163" x="105.4023" y="397.8516">ReserveStockCommand -&gt; PUT /items/{id}/reserve</text><polygon fill="#181818" points="109.4023,427.9043,99.4023,431.9043,109.4023,435.9043,105.4023,431.9043" style="stroke:#181818;stroke-width:1.0;"/><line style="stroke:#181818;stroke-width:1.0;stroke-dasharray:2.0,2.0;" x1="103.4023" x2="977.1543" y1="431.9043" y2="431.9043"/><text fill="#000000" font-family="sans-serif" font-size="13" lengthAdjust="spacing" textLength="183.1553" x="115.4023" y="427.1621">ReserveStockSucceededEvent</text><polygon fill="#181818" points="495.394,457.2148,505.394,461.2148,495.394,465.2148,499.394,461.2148" style="stroke:#181818;stroke-width:1.0;"/><line style="stroke:#181818;stroke-width:1.0;" x1="98.4023" x2="501.394" y1="461.2148" y2="461.2148"/><text fill="#000000" font-family="sans-serif" font-size="13" lengthAdjust="spacing" textLength="367.9292" x="105.4023" y="456.4727">ReserveStockSucceededEvent -&gt; PUT /orders/{id}/process</text><line style="stroke:#181818;stroke-width:1.0;" x1="507.394" x2="549.394" y1="490.5254" y2="490.5254"/><line style="stroke:#181818;stroke-width:1.0;" x1="549.394" x2="549.394" y1="490.5254" y2="503.5254"/><line style="stroke:#181818;stroke-width:1.0;" x1="508.394" x2="549.394" y1="503.5254" y2="503.5254"/><polygon fill="#181818" points="518.394,499.5254,508.394,503.5254,518.394,507.5254,514.394,503.5254" style="stroke:#181818;stroke-width:1.0;"/><text fill="#000000" font-family="sans-serif" font-size="13" lengthAdjust="spacing" textLength="309.5435" x="514.394" y="485.7832">&#1086;&#1073;&#1085;&#1086;&#1074;&#1083;&#1077;&#1085;&#1080;&#1077; &#1089;&#1090;&#1072;&#1090;&#1091;&#1089;&#1072; &#1079;&#1072;&#1082;&#1072;&#1079;&#1072; (ReserveSlotPending)</text><polygon fill="#181818" points="109.4023,528.8359,99.4023,532.8359,109.4023,536.8359,105.4023,532.8359" style="stroke:#181818;stroke-width:1.0;"/><line style="stroke:#181818;stroke-width:1.0;" x1="103.4023" x2="506.394" y1="532.8359" y2="532.8359"/><text fill="#000000" font-family="sans-serif" font-size="13" lengthAdjust="spacing" textLength="136.9126" x="115.4023" y="528.0938">ReserveSlotCommand</text><polygon fill="#181818" points="1108.0605,558.1465,1118.0605,562.1465,1108.0605,566.1465,1112.0605,562.1465" style="stroke:#181818;stroke-width:1.0;"/><line style="stroke:#181818;stroke-width:1.0;" x1="98.4023" x2="1114.0605" y1="562.1465" y2="562.1465"/><text fill="#000000" font-family="sans-serif" font-size="13" lengthAdjust="spacing" textLength="374.6196" x="105.4023" y="557.4043">ReserveSlotCommand -&gt; PUT /slots/{id}/schedule-delivery</text><polygon fill="#181818" points="109.4023,587.457,99.4023,591.457,109.4023,595.457,105.4023,591.457" style="stroke:#181818;stroke-width:1.0;"/><line style="stroke:#181818;stroke-width:1.0;stroke-dasharray:2.0,2.0;" x1="103.4023" x2="1119.0605" y1="591.457" y2="591.457"/><text fill="#000000" font-family="sans-serif" font-size="13" lengthAdjust="spacing" textLength="172.6563" x="115.4023" y="586.7148">ReserveSlotSucceededEvent</text><polygon fill="#181818" points="495.394,616.7676,505.394,620.7676,495.394,624.7676,499.394,620.7676" style="stroke:#181818;stroke-width:1.0;"/><line style="stroke:#181818;stroke-width:1.0;" x1="98.4023" x2="501.394" y1="620.7676" y2="620.7676"/><text fill="#000000" font-family="sans-serif" font-size="13" lengthAdjust="spacing" textLength="367.9292" x="105.4023" y="616.0254">ReserveStockSucceededEvent -&gt; PUT /orders/{id}/process</text><line style="stroke:#181818;stroke-width:1.0;" x1="507.394" x2="549.394" y1="665.3887" y2="665.3887"/><line style="stroke:#181818;stroke-width:1.0;" x1="549.394" x2="549.394" y1="665.3887" y2="678.3887"/><line style="stroke:#181818;stroke-width:1.0;" x1="508.394" x2="549.394" y1="678.3887" y2="678.3887"/><polygon fill="#181818" points="518.394,674.3887,508.394,678.3887,518.394,682.3887,514.394,678.3887" style="stroke:#181818;stroke-width:1.0;"/><text fill="#000000" font-family="sans-serif" font-size="13" lengthAdjust="spacing" textLength="275.0947" x="514.394" y="645.3359">&#1086;&#1073;&#1085;&#1086;&#1074;&#1083;&#1077;&#1085;&#1080;&#1077; &#1089;&#1090;&#1072;&#1090;&#1091;&#1089;&#1072; &#1079;&#1072;&#1082;&#1072;&#1079;&#1072; (NotifyPending)</text><text fill="#000000" font-family="sans-serif" font-size="13" lengthAdjust="spacing" textLength="217.2358" x="514.394" y="660.6465">&#1087;&#1088;&#1086;&#1081;&#1076;&#1077;&#1085;&#1072; &#1085;&#1077;&#1087;&#1086;&#1074;&#1086;&#1088;&#1090;&#1085;&#1072;&#1103; &#1086;&#1087;&#1077;&#1088;&#1072;&#1094;&#1080;&#1103;</text><polygon fill="#181818" points="109.4023,703.6992,99.4023,707.6992,109.4023,711.6992,105.4023,707.6992" style="stroke:#181818;stroke-width:1.0;"/><line style="stroke:#181818;stroke-width:1.0;" x1="103.4023" x2="506.394" y1="707.6992" y2="707.6992"/><text fill="#000000" font-family="sans-serif" font-size="13" lengthAdjust="spacing" textLength="102.4639" x="115.4023" y="702.957">NotifyCommand</text><polygon fill="#181818" points="1252.1064,733.0098,1262.1064,737.0098,1252.1064,741.0098,1256.1064,737.0098" style="stroke:#181818;stroke-width:1.0;"/><line style="stroke:#181818;stroke-width:1.0;" x1="98.4023" x2="1258.1064" y1="737.0098" y2="737.0098"/><text fill="#000000" font-family="sans-serif" font-size="13" lengthAdjust="spacing" textLength="243.7056" x="105.4023" y="732.2676">NotifyCommand -&gt; POST /notification</text><polygon fill="#181818" points="109.4023,762.3203,99.4023,766.3203,109.4023,770.3203,105.4023,766.3203" style="stroke:#181818;stroke-width:1.0;"/><line style="stroke:#181818;stroke-width:1.0;stroke-dasharray:2.0,2.0;" x1="103.4023" x2="1263.1064" y1="766.3203" y2="766.3203"/><text fill="#000000" font-family="sans-serif" font-size="13" lengthAdjust="spacing" textLength="138.2075" x="115.4023" y="761.5781">NotifySucceededEvent</text><polygon fill="#181818" points="495.394,791.6309,505.394,795.6309,495.394,799.6309,499.394,795.6309" style="stroke:#181818;stroke-width:1.0;"/><line style="stroke:#181818;stroke-width:1.0;" x1="98.4023" x2="501.394" y1="795.6309" y2="795.6309"/><text fill="#000000" font-family="sans-serif" font-size="13" lengthAdjust="spacing" textLength="322.9814" x="105.4023" y="790.8887">NotifySucceededEvent -&gt; PUT /orders/{id}/process</text><line style="stroke:#181818;stroke-width:1.0;" x1="507.394" x2="549.394" y1="824.9414" y2="824.9414"/><line style="stroke:#181818;stroke-width:1.0;" x1="549.394" x2="549.394" y1="824.9414" y2="837.9414"/><line style="stroke:#181818;stroke-width:1.0;" x1="508.394" x2="549.394" y1="837.9414" y2="837.9414"/><polygon fill="#181818" points="518.394,833.9414,508.394,837.9414,518.394,841.9414,514.394,837.9414" style="stroke:#181818;stroke-width:1.0;"/><text fill="#000000" font-family="sans-serif" font-size="13" lengthAdjust="spacing" textLength="255.8994" x="514.394" y="820.1992">&#1086;&#1073;&#1085;&#1086;&#1074;&#1083;&#1077;&#1085;&#1080;&#1077; &#1089;&#1090;&#1072;&#1090;&#1091;&#1089;&#1072; &#1079;&#1072;&#1082;&#1072;&#1079;&#1072; (OrderDone)</text><!--SRC=[tPH1Jzim68Rl_XLHJ_GGzTu35xRZHaL1N2OXp_wWLbCR7ASLcYOLaBZoLx9frTYcjd_1_aVxd8OGMhSKBaWS8iVEzxv-_JsAAJDAHraAEg9fCPAB33A86afpq75ApsZ3Vogc9tvwqgUdVKf88OftgqhGGy6W4RMZpdxtC6eLoobP_XnKk2ixix_jBvlRgRstamWdkVsB3uxHph4mFQxfw9EISDa1oOKyQuQSbrEYzHFjdXeCgEIhKjGMvscN5e8JicBcetyLIOAxryE7Tl2rYpPGnbGcJThw9lZtrgYi9Qj6yHRvknbZ01puno58ioRYIdStM1GvZofQYv3dMZ58jqI7u7uWj9dzQV_PIOdFNRbhcxjhTuDayoMQ1-3bq3MAzTV337UZhds06Ux2Y6heAOHQ3nkGLnqG1WPb0_IYZ8HCjWZsEahh7TuIKgBC2t-ucd8p8Gw968A-33NXKLmTFiMrykmfwm7F4eWVB4Z0B7ustdlWz5aPSLhTYL-adRinwl_WNUhrM3x5btbXENDZTC95T-Ttcji9rkRkrjwxkotXBhRRp5Nw6i6e4KhM3_T4-tX1ril96d6yASthC8QqRm5mtrjym9kv-Hy0]--></g></svg>