<svg xmlns="http://www.w3.org/2000/svg" xmlns:xlink="http://www.w3.org/1999/xlink" contentStyleType="text/css" height="573px" preserveAspectRatio="none" style="width:993px;height:573px;background:#FFFFFF;" version="1.1" viewBox="0 0 993 573" width="993px" zoomAndPan="magnify"><defs/><g><g id="Failed"><rect fill="#FF0000" height="50" rx="12.5" ry="12.5" style="stroke:#181818;stroke-width:0.5;" width="98.8867" x="887.39" y="134.93"/><line style="stroke:#181818;stroke-width:0.5;" x1="887.39" x2="986.2767" y1="161.4183" y2="161.4183"/><text fill="#000000" font-family="sans-serif" font-size="14" lengthAdjust="spacing" textLength="78.8867" x="897.39" y="153.4652">OrderFailed</text></g><g id="WithdrawMoneyPending"><rect fill="#98FB98" height="50.6211" rx="12.5" ry="12.5" style="stroke:#181818;stroke-width:0.5;" width="203.4219" x="417.13" y="7"/><line style="stroke:#181818;stroke-width:0.5;" x1="417.13" x2="620.5519" y1="33.4883" y2="33.4883"/><text fill="#000000" font-family="sans-serif" font-size="14" lengthAdjust="spacing" textLength="161.9707" x="437.8556" y="25.5352">WithdrawMoneyPending</text><text fill="#000000" font-family="sans-serif" font-size="12" lengthAdjust="spacing" textLength="183.4219" x="422.13" y="50.0898">send WithdrawMoneyCommand</text></g><g id="ReserveStockPending"><rect fill="#98FB98" height="50.6211" rx="12.5" ry="12.5" style="stroke:#181818;stroke-width:0.5;" width="187.6719" x="7" y="134.62"/><line style="stroke:#181818;stroke-width:0.5;" x1="7" x2="194.6719" y1="161.1083" y2="161.1083"/><text fill="#000000" font-family="sans-serif" font-size="14" lengthAdjust="spacing" textLength="143.5957" x="29.0381" y="153.1552">ReserveStockPending</text><text fill="#000000" font-family="sans-serif" font-size="12" lengthAdjust="spacing" textLength="167.6719" x="12" y="177.7098">send ReserveStockCommand</text></g><g id="ReserveSlotPending"><rect fill="#98FB98" height="50.6211" rx="12.5" ry="12.5" style="stroke:#181818;stroke-width:0.5;" width="177.9805" x="35.85" y="262.24"/><line style="stroke:#181818;stroke-width:0.5;" x1="35.85" x2="213.8305" y1="288.7283" y2="288.7283"/><text fill="#000000" font-family="sans-serif" font-size="14" lengthAdjust="spacing" textLength="132.2891" x="58.6957" y="280.7752">ReserveSlotPending</text><text fill="#000000" font-family="sans-serif" font-size="12" lengthAdjust="spacing" textLength="157.9805" x="40.85" y="305.3298">send ReserveSlotCommand</text></g><g id="NotifyPending"><rect fill="#98FB98" height="50.6211" rx="12.5" ry="12.5" style="stroke:#181818;stroke-width:0.5;" width="146.1816" x="51.75" y="389.86"/><line style="stroke:#181818;stroke-width:0.5;" x1="51.75" x2="197.9316" y1="416.3483" y2="416.3483"/><text fill="#000000" font-family="sans-serif" font-size="14" lengthAdjust="spacing" textLength="95.1904" x="77.2456" y="408.3952">NotifyPending</text><text fill="#000000" font-family="sans-serif" font-size="12" lengthAdjust="spacing" textLength="126.1816" x="56.75" y="432.9498">send NotifyCommand</text></g><g id="OrderSucceeded"><rect fill="#008000" height="50" rx="12.5" ry="12.5" style="stroke:#181818;stroke-width:0.5;" width="130.5371" x="59.57" y="517.48"/><line style="stroke:#181818;stroke-width:0.5;" x1="59.57" x2="190.1071" y1="543.9683" y2="543.9683"/><text fill="#000000" font-family="sans-serif" font-size="14" lengthAdjust="spacing" textLength="110.5371" x="69.57" y="536.0152">OrderSucceeded</text></g><g id="UndoWithdrawMoneyPending"><rect fill="#FFC0CB" height="50.6211" rx="12.5" ry="12.5" style="stroke:#181818;stroke-width:0.5;" width="234.1074" x="383.78" y="134.62"/><line style="stroke:#181818;stroke-width:0.5;" x1="383.78" x2="617.8874" y1="161.1083" y2="161.1083"/><text fill="#000000" font-family="sans-serif" font-size="14" lengthAdjust="spacing" textLength="197.7705" x="401.9485" y="153.1552">UndoWithdrawMoneyPending</text><text fill="#000000" font-family="sans-serif" font-size="12" lengthAdjust="spacing" textLength="214.1074" x="388.78" y="177.7098">send UndoWithdrawMoneyCommand</text></g><g id="UndoReserveStockPending"><rect fill="#FFC0CB" height="50.6211" rx="12.5" ry="12.5" style="stroke:#181818;stroke-width:0.5;" width="199.3955" x="397.14" y="262.24"/><line style="stroke:#181818;stroke-width:0.5;" x1="397.14" x2="596.5355" y1="288.7283" y2="288.7283"/><text fill="#000000" font-family="sans-serif" font-size="14" lengthAdjust="spacing" textLength="179.3955" x="407.14" y="280.7752">UndoReserveStockPending</text><text fill="#000000" font-family="sans-serif" font-size="12" lengthAdjust="spacing" textLength="153.4746" x="402.14" y="305.3298">send UndoStockCommand</text></g><!--link WithdrawMoneyPending to ReserveStockPending--><g id="link_WithdrawMoneyPending_ReserveStockPending"><path d="M436.75,57.97 C363.4,80.02 262.2361,110.423 188.8361,132.483 " fill="none" id="WithdrawMoneyPending-to-ReserveStockPending" style="stroke:#181818;stroke-width:1.0;"/><polygon fill="#181818" points="183.09,134.21,192.8604,135.4503,187.8784,132.7709,190.5578,127.7888,183.09,134.21" style="stroke:#181818;stroke-width:1.0;"/><text fill="#000000" font-family="sans-serif" font-size="13" lengthAdjust="spacing" textLength="200.2178" x="335.86" y="101.1884">WithdrawMoneySucceededEvent</text></g><!--link ReserveStockPending to ReserveSlotPending--><g id="link_ReserveStockPending_ReserveSlotPending"><path d="M105.52,185.45 C109.75,207.58 114.8151,234.0864 119.0351,256.1964 " fill="none" id="ReserveStockPending-to-ReserveSlotPending" style="stroke:#181818;stroke-width:1.0;"/><polygon fill="#181818" points="120.16,262.09,122.4018,252.4997,119.2226,257.1787,114.5436,253.9995,120.16,262.09" style="stroke:#181818;stroke-width:1.0;"/><text fill="#000000" font-family="sans-serif" font-size="13" lengthAdjust="spacing" textLength="183.1553" x="115.27" y="228.8084">ReserveStockSucceededEvent</text></g><!--link ReserveSlotPending to NotifyPending--><g id="link_ReserveSlotPending_NotifyPending"><path d="M124.84,313.07 C124.84,335.2 124.84,361.6 124.84,383.71 " fill="none" id="ReserveSlotPending-to-NotifyPending" style="stroke:#181818;stroke-width:1.0;"/><polygon fill="#181818" points="124.84,389.71,128.84,380.71,124.84,384.71,120.84,380.71,124.84,389.71" style="stroke:#181818;stroke-width:1.0;"/><text fill="#000000" font-family="sans-serif" font-size="13" lengthAdjust="spacing" textLength="172.6563" x="125.84" y="356.4284">ReserveSlotSucceededEvent</text></g><!--link NotifyPending to OrderSucceeded--><g id="link_NotifyPending_OrderSucceeded"><path d="M124.84,440.93 C124.84,463.04 124.84,489.24 124.84,511.2 " fill="none" id="NotifyPending-to-OrderSucceeded" style="stroke:#181818;stroke-width:1.0;"/><polygon fill="#181818" points="124.84,517.2,128.84,508.2,124.84,512.2,120.84,508.2,124.84,517.2" style="stroke:#181818;stroke-width:1.0;"/><text fill="#000000" font-family="sans-serif" font-size="13" lengthAdjust="spacing" textLength="138.2075" x="125.84" y="484.0484">NotifySucceededEvent</text></g><!--link WithdrawMoneyPending to Failed--><g id="link_WithdrawMoneyPending_Failed"><path d="M600.92,57.97 C686.04,83.56 810.6138,120.9935 881.3038,142.2335 " fill="none" id="WithdrawMoneyPending-to-Failed" style="stroke:#181818;stroke-width:1.0;"/><polygon fill="#181818" points="887.05,143.96,879.5817,137.5394,882.2615,142.5212,877.2796,145.201,887.05,143.96" style="stroke:#181818;stroke-width:1.0;"/><text fill="#000000" font-family="sans-serif" font-size="13" lengthAdjust="spacing" textLength="170.8281" x="753.86" y="101.1884">WithdrawMoneyFailedEvent</text></g><!--link ReserveStockPending to UndoWithdrawMoneyPending--><g id="link_ReserveStockPending_UndoWithdrawMoneyPending"><path d="M195.12,159.93 C251.48,159.93 317.55,159.93 377.56,159.93 " fill="none" id="ReserveStockPending-to-UndoWithdrawMoneyPending" style="stroke:#181818;stroke-width:1.0;"/><polygon fill="#181818" points="383.56,159.93,374.56,155.93,378.56,159.93,374.56,163.93,383.56,159.93" style="stroke:#181818;stroke-width:1.0;"/><text fill="#000000" font-family="sans-serif" font-size="13" lengthAdjust="spacing" textLength="153.7656" x="212.73" y="153.4984">ReserveStockFailedEvent</text></g><!--link UndoWithdrawMoneyPending to Failed--><g id="link_UndoWithdrawMoneyPending_Failed"><path d="M618.25,159.93 C706.15,159.93 815.99,159.93 881.01,159.93 " fill="none" id="UndoWithdrawMoneyPending-to-Failed" style="stroke:#181818;stroke-width:1.0;"/><polygon fill="#181818" points="887.01,159.93,878.01,155.93,882.01,159.93,878.01,163.93,887.01,159.93" style="stroke:#181818;stroke-width:1.0;"/><text fill="#000000" font-family="sans-serif" font-size="13" lengthAdjust="spacing" textLength="233.4604" x="636.14" y="153.4984">UndoWithdrawMoneySucceededEvent</text></g><!--link ReserveSlotPending to UndoReserveStockPending--><g id="link_ReserveSlotPending_UndoReserveStockPending"><path d="M213.94,287.55 C268.97,287.55 333.69,287.55 390.66,287.55 " fill="none" id="ReserveSlotPending-to-UndoReserveStockPending" style="stroke:#181818;stroke-width:1.0;"/><polygon fill="#181818" points="396.66,287.55,387.66,283.55,391.66,287.55,387.66,291.55,396.66,287.55" style="stroke:#181818;stroke-width:1.0;"/><text fill="#000000" font-family="sans-serif" font-size="13" lengthAdjust="spacing" textLength="143.2666" x="233.98" y="281.1184">ReserveSlotFailedEvent</text></g><!--reverse link UndoWithdrawMoneyPending to UndoReserveStockPending--><g id="link_UndoWithdrawMoneyPending_UndoReserveStockPending"><path d="M499.8676,191.4469 C499.1576,213.5769 498.32,239.98 497.61,262.09 " fill="none" id="UndoWithdrawMoneyPending-backto-UndoReserveStockPending" style="stroke:#181818;stroke-width:1.0;"/><polygon fill="#181818" points="500.06,185.45,495.7735,194.3171,499.8997,190.4474,503.7693,194.5736,500.06,185.45" style="stroke:#181818;stroke-width:1.0;"/><text fill="#000000" font-family="sans-serif" font-size="13" lengthAdjust="spacing" textLength="167.7749" x="500.08" y="228.8084">UndoStockSucceededEvent</text></g><!--SRC=[VLBBZi8m3BptAonwxW_qm0KjDnu28SvHRI2Y92WDhFZx3PiKak1mY-8PpupjmGfBC5aP93CNiYUSW1Z0Fw4sX5Mrb_Q4HlmkjAB7cXHATOGM1lU2f3RJbujGo1Fgg-ZfQ8WKDCqKDZIGkTFMwkxCGDgqy_RMTKH8-7CdPIkE70p5fT4F1uyzzDgo5c9UmK54pGouIguVWP_oIstbuV5LsJ4ouIfb1L7_EUgbaAVK_tvVdQ0UTJmob-0NwDg4iyYMuty3bvtr57OATU4if3fdiuuR5eaX-KTz74AH6EVu0EMZu5Rdq_07d8Pnh3mBGukI96TRKcbkrsyJRT-TqZH_]--></g></svg>