<svg xmlns="http://www.w3.org/2000/svg" xmlns:xlink="http://www.w3.org/1999/xlink" contentStyleType="text/css" height="508px" preserveAspectRatio="none" style="width:688px;height:508px;background:#FFFFFF;" version="1.1" viewBox="0 0 688 508" width="688px" zoomAndPan="magnify"><defs/><g><rect fill="none" height="75.9316" style="stroke:#000000;stroke-width:1.5;" width="529.3188" x="10" y="157.1094"/><rect fill="none" height="163.8633" style="stroke:#000000;stroke-width:1.5;" width="672.2915" x="10" y="247.041"/><line style="stroke:#181818;stroke-width:0.5;stroke-dasharray:5.0,5.0;" x1="37" x2="37" y1="81.4883" y2="427.9043"/><line style="stroke:#181818;stroke-width:0.5;stroke-dasharray:5.0,5.0;" x1="172.2104" x2="172.2104" y1="81.4883" y2="427.9043"/><line style="stroke:#181818;stroke-width:0.5;stroke-dasharray:5.0,5.0;" x1="511.3188" x2="511.3188" y1="81.4883" y2="427.9043"/><line style="stroke:#181818;stroke-width:0.5;stroke-dasharray:5.0,5.0;" x1="605.3188" x2="605.3188" y1="81.4883" y2="427.9043"/><text fill="#000000" font-family="sans-serif" font-size="14" lengthAdjust="spacing" textLength="29.3535" x="20" y="78.5352">user</text><ellipse cx="37.6768" cy="13.5" fill="#E2E2F0" rx="8" ry="8" style="stroke:#181818;stroke-width:0.5;"/><path d="M37.6768,21.5 L37.6768,48.5 M24.6768,29.5 L50.6768,29.5 M37.6768,48.5 L24.6768,63.5 M37.6768,48.5 L50.6768,63.5 " fill="none" style="stroke:#181818;stroke-width:0.5;"/><text fill="#000000" font-family="sans-serif" font-size="14" lengthAdjust="spacing" textLength="29.3535" x="20" y="440.4395">user</text><ellipse cx="37.6768" cy="451.8926" fill="#E2E2F0" rx="8" ry="8" style="stroke:#181818;stroke-width:0.5;"/><path d="M37.6768,459.8926 L37.6768,486.8926 M24.6768,467.8926 L50.6768,467.8926 M37.6768,486.8926 L24.6768,501.8926 M37.6768,486.8926 L50.6768,501.8926 " fill="none" style="stroke:#181818;stroke-width:0.5;"/><rect fill="#E2E2F0" height="30.4883" rx="2.5" ry="2.5" style="stroke:#181818;stroke-width:0.5;" width="105.6973" x="120.2104" y="50"/><text fill="#000000" font-family="sans-serif" font-size="14" lengthAdjust="spacing" textLength="91.6973" x="127.2104" y="70.5352">order-service</text><rect fill="#E2E2F0" height="30.4883" rx="2.5" ry="2.5" style="stroke:#181818;stroke-width:0.5;" width="105.6973" x="120.2104" y="426.9043"/><text fill="#000000" font-family="sans-serif" font-size="14" lengthAdjust="spacing" textLength="91.6973" x="127.2104" y="447.4395">order-service</text><text fill="#000000" font-family="sans-serif" font-size="14" lengthAdjust="spacing" textLength="17.623" x="499.5073" y="78.5352">db</text><path d="M493.3188,29 C493.3188,19 511.3188,19 511.3188,19 C511.3188,19 529.3188,19 529.3188,29 L529.3188,55 C529.3188,65 511.3188,65 511.3188,65 C511.3188,65 493.3188,65 493.3188,55 L493.3188,29 " fill="#E2E2F0" style="stroke:#181818;stroke-width:1.5;"/><path d="M493.3188,29 C493.3188,39 511.3188,39 511.3188,39 C511.3188,39 529.3188,39 529.3188,29 " fill="none" style="stroke:#181818;stroke-width:1.5;"/><text fill="#000000" font-family="sans-serif" font-size="14" lengthAdjust="spacing" textLength="17.623" x="499.5073" y="440.4395">db</text><path d="M493.3188,453.3926 C493.3188,443.3926 511.3188,443.3926 511.3188,443.3926 C511.3188,443.3926 529.3188,443.3926 529.3188,453.3926 L529.3188,479.3926 C529.3188,489.3926 511.3188,489.3926 511.3188,489.3926 C511.3188,489.3926 493.3188,489.3926 493.3188,479.3926 L493.3188,453.3926 " fill="#E2E2F0" style="stroke:#181818;stroke-width:1.5;"/><path d="M493.3188,453.3926 C493.3188,463.3926 511.3188,463.3926 511.3188,463.3926 C511.3188,463.3926 529.3188,463.3926 529.3188,453.3926 " fill="none" style="stroke:#181818;stroke-width:1.5;"/><rect fill="#E2E2F0" height="30.4883" rx="2.5" ry="2.5" style="stroke:#181818;stroke-width:0.5;" width="132.9727" x="539.3188" y="50"/><text fill="#000000" font-family="sans-serif" font-size="14" lengthAdjust="spacing" textLength="118.9727" x="546.3188" y="70.5352">order_saga_kafka</text><rect fill="#E2E2F0" height="30.4883" rx="2.5" ry="2.5" style="stroke:#181818;stroke-width:0.5;" width="132.9727" x="539.3188" y="426.9043"/><text fill="#000000" font-family="sans-serif" font-size="14" lengthAdjust="spacing" textLength="118.9727" x="546.3188" y="447.4395">order_saga_kafka</text><polygon fill="#181818" points="161.0591,108.7988,171.0591,112.7988,161.0591,116.7988,165.0591,112.7988" style="stroke:#181818;stroke-width:1.0;"/><line style="stroke:#181818;stroke-width:1.0;" x1="37.6768" x2="167.0591" y1="112.7988" y2="112.7988"/><text fill="#000000" font-family="sans-serif" font-size="13" lengthAdjust="spacing" textLength="84.1128" x="44.6768" y="108.0566">POST /orders</text><polygon fill="#181818" points="499.3188,138.1094,509.3188,142.1094,499.3188,146.1094,503.3188,142.1094" style="stroke:#181818;stroke-width:1.0;"/><line style="stroke:#181818;stroke-width:1.0;" x1="173.0591" x2="505.3188" y1="142.1094" y2="142.1094"/><text fill="#000000" font-family="sans-serif" font-size="13" lengthAdjust="spacing" textLength="314.2598" x="180.0591" y="137.3672">&#1087;&#1088;&#1086;&#1074;&#1077;&#1088;&#1103;&#1077;&#1090; &#1085;&#1072;&#1083;&#1080;&#1095;&#1080;&#1077; &#1087;&#1086; &#1079;&#1072;&#1075;&#1086;&#1083;&#1086;&#1074;&#1082;&#1091; "X-Request-ID"</text><path d="M10,157.1094 L160.1743,157.1094 L160.1743,164.4199 L150.1743,174.4199 L10,174.4199 L10,157.1094 " fill="#EEEEEE" style="stroke:#000000;stroke-width:1.5;"/><rect fill="none" height="75.9316" style="stroke:#000000;stroke-width:1.5;" width="529.3188" x="10" y="157.1094"/><text fill="#000000" font-family="sans-serif" font-size="13" font-weight="bold" lengthAdjust="spacing" textLength="105.1743" x="25" y="170.6777">CachedScenario</text><polygon fill="#181818" points="184.0591,191.7305,174.0591,195.7305,184.0591,199.7305,180.0591,195.7305" style="stroke:#181818;stroke-width:1.0;"/><line style="stroke:#181818;stroke-width:1.0;" x1="178.0591" x2="510.3188" y1="195.7305" y2="195.7305"/><text fill="#000000" font-family="sans-serif" font-size="13" lengthAdjust="spacing" textLength="295.769" x="190.0591" y="190.9883">&#1079;&#1072;&#1087;&#1080;&#1089;&#1100; &#1087;&#1086; &#1082;&#1083;&#1102;&#1095;&#1091; &#1089;&#1091;&#1097;&#1077;&#1089;&#1090;&#1074;&#1091;&#1077;&#1090; &#1086;&#1090;&#1076;&#1072;&#1077;&#1090; Response</text><polygon fill="#181818" points="48.6768,221.041,38.6768,225.041,48.6768,229.041,44.6768,225.041" style="stroke:#181818;stroke-width:1.0;"/><line style="stroke:#181818;stroke-width:1.0;stroke-dasharray:2.0,2.0;" x1="42.6768" x2="172.0591" y1="225.041" y2="225.041"/><text fill="#000000" font-family="sans-serif" font-size="13" lengthAdjust="spacing" textLength="111.3823" x="54.6768" y="220.2988">order_id (Cached)</text><path d="M10,247.041 L183.7368,247.041 L183.7368,254.3516 L173.7368,264.3516 L10,264.3516 L10,247.041 " fill="#EEEEEE" style="stroke:#000000;stroke-width:1.5;"/><rect fill="none" height="163.8633" style="stroke:#000000;stroke-width:1.5;" width="672.2915" x="10" y="247.041"/><text fill="#000000" font-family="sans-serif" font-size="13" font-weight="bold" lengthAdjust="spacing" textLength="128.7368" x="25" y="260.6094">NotCachedScenario</text><polygon fill="#FF0000" points="184.0591,281.6621,174.0591,285.6621,184.0591,289.6621,180.0591,285.6621" style="stroke:#FF0000;stroke-width:1.0;"/><line style="stroke:#FF0000;stroke-width:1.0;" x1="178.0591" x2="510.3188" y1="285.6621" y2="285.6621"/><text fill="#000000" font-family="sans-serif" font-size="13" lengthAdjust="spacing" textLength="286.5269" x="190.0591" y="280.9199">&#1079;&#1072;&#1087;&#1080;&#1089;&#1100; &#1087;&#1086; &#1082;&#1083;&#1102;&#1095;&#1091; &#1086;&#1090;&#1089;&#1091;&#1090;&#1089;&#1090;&#1074;&#1091;&#1077;&#1090; "X-Request-ID"</text><polygon fill="#181818" points="499.3188,310.9727,509.3188,314.9727,499.3188,318.9727,503.3188,314.9727" style="stroke:#181818;stroke-width:1.0;"/><line style="stroke:#181818;stroke-width:1.0;" x1="173.0591" x2="505.3188" y1="314.9727" y2="314.9727"/><text fill="#000000" font-family="sans-serif" font-size="13" lengthAdjust="spacing" textLength="268.7534" x="180.0591" y="310.2305">&#1089;&#1086;&#1079;&#1076;&#1072;&#1085;&#1080;&#1077; &#1079;&#1072;&#1082;&#1072;&#1079;&#1072; (WithdrawMoneyPending)</text><polygon fill="#181818" points="499.3188,340.2832,509.3188,344.2832,499.3188,348.2832,503.3188,344.2832" style="stroke:#181818;stroke-width:1.0;"/><line style="stroke:#181818;stroke-width:1.0;" x1="173.0591" x2="505.3188" y1="344.2832" y2="344.2832"/><text fill="#000000" font-family="sans-serif" font-size="13" lengthAdjust="spacing" textLength="305.7793" x="180.0591" y="339.541">&#1089;&#1086;&#1093;&#1088;&#1072;&#1085;&#1077;&#1085;&#1080;&#1077; &#1087;&#1086; &#1082;&#1083;&#1102;&#1095;&#1091; "X-Request-ID" Response</text><polygon fill="#181818" points="593.8052,369.5938,603.8052,373.5938,593.8052,377.5938,597.8052,373.5938" style="stroke:#181818;stroke-width:1.0;"/><line style="stroke:#181818;stroke-width:1.0;" x1="173.0591" x2="599.8052" y1="373.5938" y2="373.5938"/><text fill="#000000" font-family="sans-serif" font-size="13" lengthAdjust="spacing" textLength="164.4741" x="180.0591" y="368.8516">WithdrawMoneyCommand</text><polygon fill="#181818" points="48.6768,398.9043,38.6768,402.9043,48.6768,406.9043,44.6768,402.9043" style="stroke:#181818;stroke-width:1.0;"/><line style="stroke:#181818;stroke-width:1.0;stroke-dasharray:2.0,2.0;" x1="42.6768" x2="172.0591" y1="402.9043" y2="402.9043"/><text fill="#000000" font-family="sans-serif" font-size="13" lengthAdjust="spacing" textLength="52.4888" x="54.6768" y="398.1621">order_id</text><!--SRC=[ZP7FJW8n4CRFz2acwmKE6-ySkE35Wqh0H1DZI7TRO4FOOhjelF4dXfWOVHM34WW4U8Nf6pbRy00YUjWsCzlvvZVVy31H6Zf6Qk36tOovo2-0fxIGsgVeFWgb1taeNLGkuTYb3HCyuG4t4ZmHU6cr25XcjuPaH42LkB9TNE88nxPht-Zi0oxm7USujKESufXUu19mGhaFUZXtZsTs0DwrNvPt7MaI__J4OtMjEcqeyh0XHIMKCTUHOXdgiHVOwQseHy- -R3hCS6vVxP2KAJcmpyJIitqSsS6QQad19rMbGLcQjegDt3CNjNC-vS7zgKO2ickg79Ens72UgsGVwisHbkBs9_1Vn2cSe-vlCUzOzEiIR8zSdRZf5clFqsOp-kY6x5MKD8Jc3sSgbeyb6YAAwxd3QlQ9rfggZRyLTuYtqGuPMjWOQNYTLvkyrkJKOmkfg5ejJjR-Pndf3hu0]--></g></svg>